<svg width="1200" height="320" viewBox="0 0 1200 320" xmlns="http://www.w3.org/2000/svg">
<defs>
  <linearGradient id="bg" x1="0" y1="0" x2="1" y2="1">
    <stop offset="0%" stop-color="#07152F"/>
    <stop offset="55%" stop-color="#102A66"/>
    <stop offset="100%" stop-color="#3B1B73"/>
  </linearGradient>
  <radialGradient id="glow" cx="70%" cy="45%" r="65%">
    <stop offset="0%" stop-color="#7C5CFF" stop-opacity=".45"/>
    <stop offset="100%" stop-color="#7C5CFF" stop-opacity="0"/>
  </radialGradient>
  <filter id="blur"><feGaussianBlur stdDeviation="10"/></filter>
</defs>
<rect width="1200" height="320" rx="28" fill="url(#bg)"/>
<rect width="1200" height="320" rx="28" fill="url(#glow)"/>
<g stroke="#6EA8FF" stroke-opacity=".38" stroke-width="1.5">
  <path d="M80 245 L190 170 L310 225 L430 125 L555 195 L680 105 L815 175 L950 80 L1110 145"/>
  <path d="M130 80 L250 140 L360 70 L500 145 L620 65 L760 125 L900 55 L1040 115"/>
  <path d="M190 170 L250 140 M310 225 L360 70 M430 125 L500 145 M555 195 L620 65 M680 105 L760 125 M815 175 L900 55 M950 80 L1040 115"/>
</g>
<g fill="#9BC5FF">
  <circle cx="80" cy="245" r="5"/><circle cx="190" cy="170" r="6"/><circle cx="310" cy="225" r="5"/>
  <circle cx="430" cy="125" r="7"/><circle cx="555" cy="195" r="5"/><circle cx="680" cy="105" r="6"/>
  <circle cx="815" cy="175" r="5"/><circle cx="950" cy="80" r="7"/><circle cx="1110" cy="145" r="5"/>
  <circle cx="130" cy="80" r="5"/><circle cx="250" cy="140" r="6"/><circle cx="360" cy="70" r="5"/>
  <circle cx="500" cy="145" r="6"/><circle cx="620" cy="65" r="5"/><circle cx="760" cy="125" r="6"/>
  <circle cx="900" cy="55" r="5"/><circle cx="1040" cy="115" r="6"/>
</g>
<g fill="#FFFFFF" font-family="Arial, Helvetica, sans-serif" text-anchor="middle">
  <text x="600" y="265" font-size="18" opacity=".82" letter-spacing="4">DATA • AI • GENAI • AGENTIC AI</text>
</g>
</svg>